<?xml version="1.0" encoding="UTF-8" standalone="no"?>
<svg
   xmlns:dc="http://purl.org/dc/elements/1.1/"
   xmlns:cc="http://creativecommons.org/ns#"
   xmlns:rdf="http://www.w3.org/1999/02/22-rdf-syntax-ns#"
   xmlns:svg="http://www.w3.org/2000/svg"
   xmlns="http://www.w3.org/2000/svg"
   version="1.1"
   id="svg2"
   viewBox="0 0 519.77443 384.07216"
   height="108.3937mm"
   width="146.69189mm">
  <defs
     id="defs4" />
  <metadata
     id="metadata7">
    <rdf:RDF>
      <cc:Work
         rdf:about="">
        <dc:format>image/svg+xml</dc:format>
        <dc:type
           rdf:resource="http://purl.org/dc/dcmitype/StillImage" />
        <dc:title></dc:title>
      </cc:Work>
    </rdf:RDF>
  </metadata>
  <g
     transform="translate(-140.52,-175.93226)"
     id="layer1">
    <g
       transform="matrix(4.0945859,0,0,4.0945859,-434.85121,-544.43753)"
       id="flowRoot3336"
       style="font-style:normal;font-variant:normal;font-weight:normal;font-stretch:normal;font-size:40px;line-height:125%;font-family:'Varela Round';-inkscape-font-specification:'Varela Round';letter-spacing:0px;word-spacing:0px;fill:#efface;fill-opacity:1;stroke:none;stroke-width:1px;stroke-linecap:butt;stroke-linejoin:miter;stroke-opacity:1">
      <path
         id="path3399"
         style="font-style:normal;font-variant:normal;font-weight:normal;font-stretch:normal;font-size:40px;line-height:80.00000119%;font-family:'Varela Round';-inkscape-font-specification:'Varela Round, Normal';text-align:start;writing-mode:lr-tb;text-anchor:start"
         d="m 152.68,205.73227 q -5.08,0 -9.52,-1.92 -0.48,-0.2 -0.8,-0.64 -0.32,-0.48 -0.32,-1 0,-0.68 0.44,-1.16 0.48,-0.52 1.2,-0.52 0.4,0 0.76,0.16 3.68,1.64 7.88,1.64 7,0 7,-4.6 0,-1.2 -0.92,-2 -0.88,-0.8 -2.2,-1.24 -1.32,-0.48 -3.76,-1.12 -3.24,-0.84 -5.24,-1.6 -2,-0.8 -3.44,-2.36 -1.44,-1.56 -1.44,-4.16 0,-2.28 1.2,-4.12 1.2,-1.88 3.52,-2.96 2.36,-1.12 5.64,-1.12 4.4,0 7.96,1.32 1.12,0.4 1.12,1.6 0,0.64 -0.44,1.16 -0.44,0.52 -1.16,0.52 -0.24,0 -0.64,-0.16 -3.12,-1.08 -6.44,-1.08 -3.16,0 -5.16,1.2 -1.96,1.2 -1.96,3.36 0,1.44 0.92,2.36 0.96,0.88 2.36,1.4 1.44,0.48 3.88,1.04 3.16,0.76 5.08,1.52 1.96,0.76 3.32,2.36 1.4,1.6 1.4,4.32 0,2.24 -1.28,4.04 -1.28,1.76 -3.6,2.76 -2.32,1 -5.36,1 z" />
      <path
         id="path3401"
         style="font-style:normal;font-variant:normal;font-weight:normal;font-stretch:normal;font-size:40px;line-height:80.00000119%;font-family:'Varela Round';-inkscape-font-specification:'Varela Round, Normal';text-align:start;writing-mode:lr-tb;text-anchor:start"
         d="m 177.2875,205.73227 q -2.88,0 -5.32,-1.28 -2.44,-1.28 -3.92,-3.68 -1.44,-2.4 -1.44,-5.64 0,-3.24 1.44,-5.64 1.48,-2.4 3.92,-3.68 2.44,-1.28 5.32,-1.28 2.12,0 3.64,0.56 1.56,0.52 2.88,1.36 0.8,0.52 0.8,1.4 0,0.6 -0.48,1.12 -0.44,0.48 -1.04,0.48 -0.44,0 -0.88,-0.24 -1.32,-0.68 -2.28,-0.96 -0.92,-0.32 -2.32,-0.32 -3.44,0 -5.4,2 -1.96,1.96 -1.96,5.2 0,3.24 1.96,5.24 1.96,1.96 5.4,1.96 1.4,0 2.32,-0.28 0.96,-0.32 2.28,-1 0.44,-0.24 0.88,-0.24 0.6,0 1.04,0.52 0.48,0.48 0.48,1.08 0,0.88 -0.8,1.4 -1.32,0.84 -2.88,1.4 -1.52,0.52 -3.64,0.52 z" />
      <path
         id="path3403"
         style="font-style:normal;font-variant:normal;font-weight:normal;font-stretch:normal;font-size:40px;line-height:80.00000119%;font-family:'Varela Round';-inkscape-font-specification:'Varela Round, Normal';text-align:start;writing-mode:lr-tb;text-anchor:start"
         d="m 194.37563,205.73227 q -1.76001,0 -3.28001,-0.72 -1.48,-0.72 -2.36,-2.08 -0.88,-1.4 -0.88,-3.2 0,-2.96 2.32,-4.72 2.36,-1.76 6.88,-1.76 l 4.84,0 0,-0.32 q 0,-2.64 -1.32,-3.8 -1.28,-1.16 -4.04,-1.16 -1.52,0 -2.72,0.24 -1.16,0.24 -2.6,0.72 -0.32,0.08 -0.52,0.08 -0.6,0 -1.04,-0.44 -0.44,-0.44 -0.44,-1.08 0,-1.08 1.04,-1.52 3.4,-1.44 6.92,-1.44 2.76001,0 4.64,1.12 1.92,1.12 2.8,2.92 0.92,1.76 0.92,3.84 l 0,11.32 q 0,0.76 -0.56,1.28 -0.52,0.52 -1.28,0.52 -0.76,0 -1.28,-0.52 -0.52,-0.52 -0.52,-1.28 l 0,-1.04 q -2.96,3.04 -7.51999,3.04 z m 1.35999,-3.2 q 1.76,0 3.4,-0.84 1.64,-0.88 2.76,-2.16 l 0,-3.36 -4.36,0 q -6.04,0 -6.04,3.16 0,1.44 0.96,2.32 1,0.88 3.28,0.88 z" />
      <path
         id="path3405"
         style="font-style:normal;font-variant:normal;font-weight:normal;font-stretch:normal;font-size:40px;line-height:80.00000119%;font-family:'Varela Round';-inkscape-font-specification:'Varela Round, Normal';text-align:start;writing-mode:lr-tb;text-anchor:start"
         d="m 213.47562,205.53227 q -0.76,0 -1.28,-0.52 -0.52,-0.52 -0.52,-1.28 l 0,-25.96 q 0,-0.76 0.52,-1.28 0.52,-0.56 1.28,-0.56 0.8,0 1.32,0.52 0.52,0.52 0.52,1.32 l 0,25.96 q 0,0.76 -0.56,1.28 -0.52,0.52 -1.28,0.52 z" />
      <path
         id="path3407"
         style="font-style:normal;font-variant:normal;font-weight:normal;font-stretch:normal;font-size:40px;line-height:80.00000119%;font-family:'Varela Round';-inkscape-font-specification:'Varela Round, Normal';text-align:start;writing-mode:lr-tb;text-anchor:start"
         d="m 226.7975,205.73227 q -1.76,0 -3.28,-0.72 -1.48,-0.72 -2.36,-2.08 -0.88,-1.4 -0.88,-3.2 0,-2.96 2.32,-4.72 2.36,-1.76 6.88,-1.76 l 4.84,0 0,-0.32 q 0,-2.64 -1.32,-3.8 -1.28,-1.16 -4.04,-1.16 -1.52,0 -2.72,0.24 -1.16,0.24 -2.6,0.72 -0.32,0.08 -0.52,0.08 -0.6,0 -1.04,-0.44 -0.44,-0.44 -0.44,-1.08 0,-1.08 1.04,-1.52 3.4,-1.44 6.92,-1.44 2.76,0 4.64,1.12 1.92,1.12 2.8,2.92 0.92,1.76 0.92,3.84 l 0,11.32 q 0,0.76 -0.56,1.28 -0.52,0.52 -1.28,0.52 -0.76,0 -1.28,-0.52 -0.52,-0.52 -0.52,-1.28 l 0,-1.04 q -2.96,3.04 -7.52,3.04 z m 1.36,-3.2 q 1.76,0 3.4,-0.84 1.64,-0.88 2.76,-2.16 l 0,-3.36 -4.36,0 q -6.04,0 -6.04,3.16 0,1.44 0.96,2.32 1,0.88 3.28,0.88 z" />
      <path
         id="path3409"
         style="font-style:normal;font-variant:normal;font-weight:normal;font-stretch:normal;font-size:40px;line-height:80.00000119%;font-family:'Varela Round';-inkscape-font-specification:'Varela Round, Normal';text-align:start;writing-mode:lr-tb;text-anchor:start"
         d="m 245.8975,205.53227 q -0.76,0 -1.28,-0.52 -0.52,-0.52 -0.52,-1.28 l 0,-17.16 q 0,-0.76 0.52,-1.28 0.52,-0.56 1.28,-0.56 0.76,0 1.28,0.56 0.56,0.52 0.56,1.28 l 0,1.72 q 2.8,-3.76 6.28,-3.76 l 0.2,0 q 0.76,0 1.24,0.52 0.52,0.52 0.52,1.28 0,0.76 -0.52,1.24 -0.52,0.48 -1.32,0.48 l -0.2,0 q -1.92,0 -3.52,0.96 -1.6,0.92 -2.68,2.56 l 0,12.16 q 0,0.76 -0.56,1.28 -0.52,0.52 -1.28,0.52 z" />
      <path
         id="path3411"
         style="font-style:normal;font-variant:normal;font-weight:normal;font-stretch:normal;font-size:40px;line-height:80.00000119%;font-family:'Varela Round';-inkscape-font-specification:'Varela Round, Normal';text-align:start;writing-mode:lr-tb;text-anchor:start"
         d="m 151.97465,237.53227 c -1.09333,0 -1.92,-0.61333 -2.48,-1.84 l -8.41465,-23.96 c -0.08,-0.21333 -0.12,-0.44 -0.12,-0.68 0,-0.56 0.16,-1 0.48,-1.32 0.32,-0.34667 0.76,-0.52 1.32,-0.52 0.37333,0 0.70667,0.12 1,0.36 0.32,0.21333 0.56,0.50667 0.72,0.88 l 7.93465,23.44 7.93465,-23.44 c 0.16,-0.37333 0.38667,-0.66667 0.68,-0.88 0.32,-0.24 0.66667,-0.36 1.04,-0.36 0.56,0 1,0.17333 1.32,0.52 0.32,0.32 0.48,0.76 0.48,1.32 0,0.24 -0.04,0.46667 -0.12,0.68 l -8.41465,23.96 c -0.56,1.22667 -1.38667,1.84 -2.48,1.84 z" />
      <path
         id="path3413"
         style="font-style:normal;font-variant:normal;font-weight:normal;font-stretch:normal;font-size:40px;line-height:80.00000119%;font-family:'Varela Round';-inkscape-font-specification:'Varela Round, Normal';text-align:start;writing-mode:lr-tb;text-anchor:start"
         d="m 175.87307,237.73227 q -4.88,0 -7.64,-2.76 -2.72,-2.8 -2.72,-7.84 0,-2.84 1.04,-5.24 1.04,-2.4 3.2,-3.88 2.16,-1.48 5.32,-1.48 2.96,0 5.12,1.4 2.16,1.36 3.28,3.68 1.12,2.28 1.12,5 0,0.76 -0.52,1.28 -0.48,0.52 -1.32,0.52 l -13.56,0 q 0.32,2.8 2.08,4.36 1.76,1.56 4.92,1.56 1.68,0 2.92,-0.32 1.28,-0.32 2.48,-0.92 0.32,-0.16 0.72,-0.16 0.64001,0 1.12,0.44 0.48,0.44 0.48,1.12 0,0.88 -1.04,1.48 -1.56,0.88 -3.08,1.32 -1.52,0.44 -3.92,0.44 z m 5.12,-12.28 q -0.12,-1.96 -1.03999,-3.28 -0.88001,-1.32 -2.20001,-1.92 -1.32,-0.64 -2.68,-0.64 -1.36,0 -2.68,0.64 -1.32,0.6 -2.2,1.92 -0.88,1.32 -1,3.28 l 11.8,0 z" />
      <path
         id="path3415"
         style="font-style:normal;font-variant:normal;font-weight:normal;font-stretch:normal;font-size:40px;line-height:80.00000119%;font-family:'Varela Round';-inkscape-font-specification:'Varela Round, Normal';text-align:start;writing-mode:lr-tb;text-anchor:start"
         d="m 198.84932,237.73227 q -2.88,0 -5.32,-1.28 -2.44,-1.28 -3.91999,-3.68 -1.44001,-2.4 -1.44001,-5.64 0,-3.24 1.44001,-5.64 1.47999,-2.4 3.91999,-3.68 2.44,-1.28 5.32,-1.28 2.12,0 3.64,0.56 1.56,0.52 2.88,1.36 0.80001,0.52 0.80001,1.4 0,0.6 -0.48001,1.12 -0.44,0.48 -1.04,0.48 -0.44,0 -0.88,-0.24 -1.32,-0.68 -2.28,-0.96 -0.92,-0.32 -2.32,-0.32 -3.44,0 -5.4,2 -1.96,1.96 -1.96,5.2 0,3.24 1.96,5.24 1.96,1.96 5.4,1.96 1.4,0 2.32,-0.28 0.96,-0.32 2.28,-1 0.44,-0.24 0.88,-0.24 0.6,0 1.04,0.52 0.48001,0.48 0.48001,1.08 0,0.88 -0.80001,1.4 -1.32,0.84 -2.88,1.4 -1.52,0.52 -3.64,0.52 z" />
      <path
         id="path3417"
         style="font-style:normal;font-variant:normal;font-weight:normal;font-stretch:normal;font-size:40px;line-height:80.00000119%;font-family:'Varela Round';-inkscape-font-specification:'Varela Round, Normal';text-align:start;writing-mode:lr-tb;text-anchor:start"
         d="m 217.77745,237.73227 q -5.84,0 -5.84,-5.28 l 0,-12.4 -2.84,0 q -0.32,0 -0.56,-0.2 -0.2,-0.24 -0.2,-0.56 0,-0.4 0.36,-0.68 l 5.44,-5.32 q 0.36,-0.36 0.68,-0.36 0.32,0 0.52,0.24 0.24,0.24 0.24,0.56 l 0,3.2 4.52,0 q 0.68,0 1.12,0.44 0.44,0.44 0.44,1.12 0,0.64 -0.44,1.12 -0.44,0.44 -1.12,0.44 l -4.52,0 0,12.08 q 0,1.56 0.72,2 0.76,0.4 1.88,0.4 0.8,0 1.6,-0.24 0.16,-0.04 0.32,-0.08 0.2,-0.04 0.48,-0.04 0.56,0 1,0.44 0.44,0.4 0.44,1 0,0.92 -0.92,1.4 -1.56,0.72 -3.32,0.72 z" />
      <path
         id="path3419"
         style="font-style:normal;font-variant:normal;font-weight:normal;font-stretch:normal;font-size:40px;line-height:80.00000119%;font-family:'Varela Round';-inkscape-font-specification:'Varela Round, Normal';text-align:start;writing-mode:lr-tb;text-anchor:start"
         d="m 234.73745,237.73227 q -3.08,0 -5.4,-1.32 -2.32,-1.32 -3.6,-3.72 -1.24,-2.44 -1.24,-5.56 0,-3.12 1.24,-5.52 1.28,-2.44 3.6,-3.76 2.32,-1.32 5.4,-1.32 3.04,0 5.36,1.32 2.32,1.32 3.6,3.76 1.28,2.4 1.28,5.52 0,3.12 -1.28,5.56 -1.28,2.4 -3.6,3.72 -2.32,1.32 -5.36,1.32 z m 0,-3.32 q 1.64,0 3.12,-0.76 1.52,-0.76 2.48,-2.4 1,-1.64 1,-4.16 0,-2.48 -1,-4.12 -0.96,-1.64 -2.48,-2.36 -1.48,-0.76 -3.12,-0.76 -1.68,0 -3.2,0.76 -1.48,0.72 -2.44,2.36 -0.96,1.64 -0.96,4.12 0,2.52 0.96,4.16 0.96,1.64 2.44,2.4 1.52,0.76 3.2,0.76 z" />
      <path
         id="path3421"
         style="font-style:normal;font-variant:normal;font-weight:normal;font-stretch:normal;font-size:40px;line-height:80.00000119%;font-family:'Varela Round';-inkscape-font-specification:'Varela Round, Normal';text-align:start;writing-mode:lr-tb;text-anchor:start"
         d="m 251.91245,237.53227 q -0.76,0 -1.28,-0.52 -0.52,-0.52 -0.52,-1.28 l 0,-17.16 q 0,-0.76 0.52,-1.28 0.52,-0.56 1.28,-0.56 0.76,0 1.28,0.56 0.56,0.52 0.56,1.28 l 0,1.72 q 2.8,-3.76 6.28,-3.76 l 0.2,0 q 0.76,0 1.24,0.52 0.52,0.52 0.52,1.28 0,0.76 -0.52,1.24 -0.52,0.48 -1.32,0.48 l -0.2,0 q -1.92,0 -3.52,0.96 -1.6,0.92 -2.68,2.56 l 0,12.16 q 0,0.76 -0.56,1.28 -0.52,0.52 -1.28,0.52 z" />
      <path
         id="path3423"
         style="font-style:normal;font-variant:normal;font-weight:normal;font-stretch:normal;font-size:40px;line-height:80.00000119%;font-family:'Varela Round';-inkscape-font-specification:'Varela Round, Normal';text-align:start;writing-mode:lr-tb;text-anchor:start"
         d="m 152.16,269.53227 q -0.76,0 -1.28,-0.52 -0.52,-0.52 -0.52,-1.28 l 0,-22.92 -8.16,0 q -0.72,0 -1.2,-0.48 -0.48,-0.48 -0.48,-1.2 0,-0.72 0.48,-1.2 0.48,-0.52 1.2,-0.52 l 19.92,0 q 0.72,0 1.2,0.52 0.52,0.48 0.52,1.2 0,0.72 -0.52,1.2 -0.48,0.48 -1.2,0.48 l -8.12,0 0,22.92 q 0,0.76 -0.56,1.28 -0.52,0.52 -1.28,0.52 z" />
      <path
         id="path3425"
         style="font-style:normal;font-variant:normal;font-weight:normal;font-stretch:normal;font-size:40px;line-height:80.00000119%;font-family:'Varela Round';-inkscape-font-specification:'Varela Round, Normal';text-align:start;writing-mode:lr-tb;text-anchor:start"
         d="m 173.66655,269.73227 q -4.88,0 -7.64,-2.76 -2.72,-2.8 -2.72,-7.84 0,-2.84 1.04,-5.24 1.04,-2.4 3.2,-3.88 2.16,-1.48 5.32,-1.48 2.96,0 5.12,1.4 2.16,1.36 3.28,3.68 1.12,2.28 1.12,5 0,0.76 -0.52,1.28 -0.48,0.52 -1.32,0.52 l -13.56,0 q 0.32,2.8 2.08,4.36 1.76,1.56 4.92,1.56 1.68,0 2.92,-0.32 1.28,-0.32 2.48,-0.92 0.32,-0.16 0.72,-0.16 0.64,0 1.12,0.44 0.48,0.44 0.48,1.12 0,0.88 -1.04,1.48 -1.56,0.88 -3.08,1.32 -1.52,0.44 -3.92,0.44 z m 5.12,-12.28 q -0.12,-1.96 -1.04,-3.28 -0.88,-1.32 -2.2,-1.92 -1.32,-0.64 -2.68,-0.64 -1.36,0 -2.68,0.64 -1.32,0.6 -2.2,1.92 -0.88,1.32 -1,3.28 l 11.8,0 z" />
      <path
         id="path3427"
         style="font-style:normal;font-variant:normal;font-weight:normal;font-stretch:normal;font-size:40px;line-height:80.00000119%;font-family:'Varela Round';-inkscape-font-specification:'Varela Round, Normal';text-align:start;writing-mode:lr-tb;text-anchor:start"
         d="m 189.0028,269.53227 q -0.76,0 -1.28,-0.52 -0.52,-0.52 -0.52,-1.28 l 0,-17.16 q 0,-0.76 0.52,-1.28 0.52,-0.56 1.28,-0.56 0.76,0 1.28,0.56 0.56,0.52 0.56,1.28 l 0,1.64 q 1.52,-1.68 3.28,-2.68 1.76,-1 4.16,-1 2.2,0 3.8,1.04 1.64,1.04 2.48,2.84 0.88,1.8 0.88,3.96 l 0,11.36 q 0,0.76 -0.56,1.28 -0.52,0.52 -1.28,0.52 -0.76,0 -1.28,-0.52 -0.52,-0.52 -0.52,-1.28 l 0,-10.96 q 0,-4.88 -4.4,-4.88 -2,0 -3.6,1.04 -1.56,1.04 -2.96,2.8 l 0,12 q 0,0.76 -0.56,1.28 -0.52,0.52 -1.28,0.52 z" />
      <path
         id="path3429"
         style="font-style:normal;font-variant:normal;font-weight:normal;font-stretch:normal;font-size:40px;line-height:80.00000119%;font-family:'Varela Round';-inkscape-font-specification:'Varela Round, Normal';text-align:start;writing-mode:lr-tb;text-anchor:start"
         d="m 218.09967,269.73227 q -4,0 -7.28,-1.8 -0.68,-0.48 -0.68,-1.32 0,-0.64 0.44,-1.12 0.44,-0.48 1.12001,-0.48 0.35999,0 0.71999,0.16 1.28001,0.56 2.56,0.88 1.28,0.32 2.88,0.32 4.44,0 4.44,-2.84 0,-0.92 -1.04,-1.4 -1,-0.48 -3.32,-1.08 -2.36,-0.56 -3.92,-1.16 -1.52,-0.6 -2.64,-1.8 -1.08,-1.24 -1.08,-3.24 0,-2.8 2,-4.56 2.04,-1.76 5.8,-1.76 3.08,0 5.8,1 0.56,0.16 0.84,0.6 0.32,0.44 0.32,0.92 0,0.64 -0.48,1.12 -0.44,0.48 -1.12,0.48 -0.2,0 -0.52,-0.08 -2.32,-0.72 -4.56,-0.72 -2.16,0 -3.4,0.8 -1.2,0.76 -1.2,2 0,1.2 1.12,1.76 1.12,0.56 3.48,1.08 2.36,0.6 3.84,1.2 1.48001,0.56 2.52,1.8 1.08,1.24 1.08,3.32 0,2.56 -2.04,4.24 -2,1.68 -5.68,1.68 z" />
      <path
         id="path3431"
         style="font-style:normal;font-variant:normal;font-weight:normal;font-stretch:normal;font-size:40px;line-height:80.00000119%;font-family:'Varela Round';-inkscape-font-specification:'Varela Round, Normal';text-align:start;writing-mode:lr-tb;text-anchor:start"
         d="m 239.71842,269.73227 q -3.08,0 -5.4,-1.32 -2.32,-1.32 -3.6,-3.72 -1.24,-2.44 -1.24,-5.56 0,-3.12 1.24,-5.52 1.28,-2.44 3.6,-3.76 2.32,-1.32 5.4,-1.32 3.04,0 5.36,1.32 2.32,1.32 3.6,3.76 1.28,2.4 1.28,5.52 0,3.12 -1.28,5.56 -1.28,2.4 -3.6,3.72 -2.32,1.32 -5.36,1.32 z m 0,-3.32 q 1.64,0 3.12,-0.76 1.52,-0.76 2.48,-2.4 1,-1.64 1,-4.16 0,-2.48 -1,-4.12 -0.96,-1.64 -2.48,-2.36 -1.48,-0.76 -3.12,-0.76 -1.68,0 -3.2,0.76 -1.48,0.72 -2.44,2.36 -0.96,1.64 -0.96,4.12 0,2.52 0.96,4.16 0.96,1.64 2.44,2.4 1.52,0.76 3.2,0.76 z" />
      <path
         id="path3433"
         style="font-style:normal;font-variant:normal;font-weight:normal;font-stretch:normal;font-size:40px;line-height:80.00000119%;font-family:'Varela Round';-inkscape-font-specification:'Varela Round, Normal';text-align:start;writing-mode:lr-tb;text-anchor:start"
         d="m 256.89342,269.53227 q -0.76,0 -1.28,-0.52 -0.52,-0.52 -0.52,-1.28 l 0,-17.16 q 0,-0.76 0.52,-1.28 0.52,-0.56 1.28,-0.56 0.76001,0 1.28,0.56 0.56,0.52 0.56,1.28 l 0,1.72 q 2.80001,-3.76 6.28,-3.76 l 0.2,0 q 0.76001,0 1.24,0.52 0.52001,0.52 0.52001,1.28 0,0.76 -0.52001,1.24 -0.52,0.48 -1.32,0.48 l -0.2,0 q -1.92,0 -3.51999,0.96 -1.60001,0.92 -2.68001,2.56 l 0,12.16 q 0,0.76 -0.56,1.28 -0.51999,0.52 -1.28,0.52 z" />
    </g>
  </g>
</svg>
